<?xml version="1.0" encoding="UTF-8" standalone="no"?><!DOCTYPE svg PUBLIC "-//W3C//DTD SVG 1.1//EN" "http://www.w3.org/Graphics/SVG/1.1/DTD/svg11.dtd"><svg width="32px" height="32px" version="1.1" xmlns="http://www.w3.org/2000/svg" xmlns:xlink="http://www.w3.org/1999/xlink" xml:space="preserve" xmlns:serif="http://www.serif.com/" style="fill-rule:evenodd;clip-rule:evenodd;stroke-linecap:round;stroke-linejoin:round;stroke-miterlimit:1.5;"><path d="M4,4L8,4L8,26L24,26L24,4L28,4L28,30L4,30L4,4Z" style="fill:rgb(241,151,63);"/><g transform="matrix(-0.530624,0.572071,-0.608908,-0.65647,29.542,17.6856)"><path d="M11,12.25C10.876,13.212 11.784,14 12.75,14L20.25,14C21.216,14 22.112,13.417 22.112,12.451L22,10.75C21.807,9.616 20.765,9.057 19.756,9.02L15.996,9" style="fill:none;stroke:black;stroke-width:2.4px;"/></g><g transform="matrix(0.530624,-0.572071,0.608908,0.65647,2.45008,16.5231)"><path d="M11,12.25C10.876,13.212 11.784,14 12.75,14L20.25,14C21.216,14 22.112,13.417 22.112,12.451L22,10.75C21.807,9.616 20.765,9.057 19.756,9.02L15.996,9" style="fill:none;stroke:black;stroke-width:2.4px;"/></g><path d="M12.056,2L19.953,2L20,4L22,4L22,8L10,8L10,4L12,4L12.056,2Z" style="fill:rgb(108,109,117);"/></svg>