<?xml version="1.0" encoding="UTF-8" standalone="no"?><!DOCTYPE svg PUBLIC "-//W3C//DTD SVG 1.1//EN" "http://www.w3.org/Graphics/SVG/1.1/DTD/svg11.dtd"><svg width="32px" height="32px" version="1.1" xmlns="http://www.w3.org/2000/svg" xmlns:xlink="http://www.w3.org/1999/xlink" xml:space="preserve" xmlns:serif="http://www.serif.com/" style="fill-rule:evenodd;clip-rule:evenodd;stroke-linejoin:round;stroke-miterlimit:2;"><path id="CarryForward" d="M23,11L29,11.017L29,29L11,29L11,23L13,23L13,27L27,27L27,13L23,13L23,11ZM13.5,11.5L25,23L23,25L11.5,13.5L8,17L8,8L17,8L13.5,11.5ZM3,3L21,3L21,13L19,13L19,5L5,5L5,19L13,19L13,21L3,21L3,3Z" style="fill:rgb(78,138,200);"/></svg>