<svg xmlns="http://www.w3.org/2000/svg" viewBox="0 0 720 320" font-family="Segoe UI, Arial, sans-serif" font-size="13">
  <defs>
    <marker id="arrow" markerWidth="8" markerHeight="6" refX="8" refY="3" orient="auto">
      <path d="M0,0 L8,3 L0,6" fill="none" stroke="#555" stroke-width="1.2"/>
    </marker>
    <marker id="arrow-back" markerWidth="8" markerHeight="6" refX="0" refY="3" orient="auto">
      <path d="M8,0 L0,3 L8,6" fill="none" stroke="#555" stroke-width="1.2"/>
    </marker>
  </defs>

  <!-- KI-Client Box -->
  <rect x="30" y="60" width="180" height="200" rx="10" fill="#e8f0fe" stroke="#4a7cc9" stroke-width="1.5"/>
  <text x="120" y="90" text-anchor="middle" font-weight="bold" font-size="14" fill="#1a3a6b">KI-Client</text>
  <line x1="50" y1="100" x2="190" y2="100" stroke="#4a7cc9" stroke-width="0.8"/>
  <text x="120" y="125" text-anchor="middle" fill="#444">Claude Code</text>
  <text x="120" y="148" text-anchor="middle" fill="#444">Cursor</text>
  <text x="120" y="171" text-anchor="middle" fill="#444">VS Code Copilot</text>
  <text x="120" y="194" text-anchor="middle" fill="#444">...</text>

  <!-- Pfeile bidirektional -->
  <line x1="210" y1="140" x2="298" y2="140" stroke="#555" stroke-width="1.5" marker-end="url(#arrow)" marker-start="url(#arrow-back)"/>
  <line x1="210" y1="180" x2="298" y2="180" stroke="#555" stroke-width="1.5" marker-end="url(#arrow)" marker-start="url(#arrow-back)"/>

  <!-- Protokoll-Labels -->
  <text x="254" y="133" text-anchor="middle" font-size="10" fill="#666">HTTP</text>
  <text x="254" y="175" text-anchor="middle" font-size="10" fill="#666">SSE</text>

  <!-- MCP-Server Box -->
  <rect x="300" y="30" width="190" height="260" rx="10" fill="#e6f4ea" stroke="#34a853" stroke-width="1.5"/>
  <text x="395" y="60" text-anchor="middle" font-weight="bold" font-size="14" fill="#1a5c2b">MCP-Server</text>
  <line x1="320" y1="70" x2="470" y2="70" stroke="#34a853" stroke-width="0.8"/>
  <text x="395" y="95" text-anchor="middle" font-size="11" fill="#444">FS AddIn</text>

  <!-- Innere Komponenten -->
  <rect x="320" y="110" width="150" height="32" rx="5" fill="#fff" stroke="#34a853" stroke-width="1"/>
  <text x="395" y="131" text-anchor="middle" font-size="12" fill="#333">HTTP-Server :PORT</text>

  <rect x="320" y="155" width="150" height="32" rx="5" fill="#fff" stroke="#34a853" stroke-width="1"/>
  <text x="395" y="176" text-anchor="middle" font-size="12" fill="#333">MCP-Protokoll</text>

  <rect x="320" y="200" width="150" height="32" rx="5" fill="#fff" stroke="#34a853" stroke-width="1"/>
  <text x="395" y="221" text-anchor="middle" font-size="12" fill="#333">Tool-Registry</text>

  <!-- Vertikale Pfeile zwischen Komponenten -->
  <line x1="395" y1="142" x2="395" y2="155" stroke="#555" stroke-width="1.2" marker-end="url(#arrow)"/>
  <line x1="395" y1="187" x2="395" y2="200" stroke="#555" stroke-width="1.2" marker-end="url(#arrow)"/>

  <!-- Pfeil zur FS-API -->
  <line x1="395" y1="232" x2="395" y2="258" stroke="#555" stroke-width="1.2" marker-end="url(#arrow)"/>

  <!-- Pfeil zum Repository -->
  <line x1="490" y1="160" x2="530" y2="160" stroke="#555" stroke-width="1.5" marker-end="url(#arrow)" marker-start="url(#arrow-back)"/>

  <!-- FS-Repository Box -->
  <rect x="532" y="60" width="160" height="200" rx="10" fill="#fef7e0" stroke="#f9ab00" stroke-width="1.5"/>
  <text x="612" y="90" text-anchor="middle" font-weight="bold" font-size="14" fill="#7a5900">FS-Repository</text>
  <line x1="552" y1="100" x2="672" y2="100" stroke="#f9ab00" stroke-width="0.8"/>
  <text x="612" y="123" text-anchor="middle" font-size="12" fill="#444">Components</text>
  <text x="612" y="145" text-anchor="middle" font-size="12" fill="#444">Forms</text>
  <text x="612" y="167" text-anchor="middle" font-size="12" fill="#444">Services</text>
  <text x="612" y="189" text-anchor="middle" font-size="12" fill="#444">DB-Tabellen</text>
  <text x="612" y="211" text-anchor="middle" font-size="12" fill="#444">...</text>

  <!-- Beschriftung unten -->
  <text x="395" y="278" text-anchor="middle" font-size="11" fill="#666">JSON-RPC über Streamable HTTP</text>
  <text x="395" y="295" text-anchor="middle" font-size="11" fill="#666">localhost (Port abhängig vom Benutzer)</text>
</svg>
